<svg width="16" height="16" viewBox="0 0 16 16" fill="none" xmlns="http://www.w3.org/2000/svg">
<path d="M7.96588 6.58442L7.0922 5.71075C7.20058 5.43206 7.25809 5.13125 7.25809 4.81496C7.25809 3.44584 6.14996 2.33771 4.78084 2.33771C3.41172 2.33771 2.30359 3.44584 2.30359 4.81496C2.30359 6.18408 3.41172 7.29221 4.78084 7.29221C5.09713 7.29221 5.39794 7.23249 5.67663 7.12632L6.55031 8L5.67663 8.87367C5.39794 8.76529 5.09713 8.70778 4.78084 8.70778C3.41172 8.70778 2.30359 9.81591 2.30359 11.185C2.30359 12.5542 3.41172 13.6623 4.78084 13.6623C6.14996 13.6623 7.25809 12.5542 7.25809 11.185C7.25809 10.8687 7.19837 10.5679 7.0922 10.2892L13.3451 4.03639C13.5021 3.87935 13.5021 3.62721 13.3451 3.47017C12.7191 2.84422 11.7061 2.84422 11.0801 3.47017L7.96588 6.58442ZM8.46575 9.91544L11.0801 12.5298C11.7061 13.1558 12.7191 13.1558 13.3451 12.5298C13.5021 12.3728 13.5021 12.1206 13.3451 11.9636L9.88132 8.49987L8.46575 9.91544ZM3.71916 4.81496C3.71916 4.67554 3.74662 4.53748 3.79998 4.40867C3.85333 4.27986 3.93153 4.16282 4.03012 4.06424C4.12871 3.96565 4.24574 3.88745 4.37455 3.8341C4.50336 3.78074 4.64142 3.75328 4.78084 3.75328C4.92026 3.75328 5.05832 3.78074 5.18713 3.8341C5.31594 3.88745 5.43297 3.96565 5.53156 4.06424C5.63015 4.16282 5.70835 4.27986 5.7617 4.40867C5.81506 4.53748 5.84252 4.67554 5.84252 4.81496C5.84252 4.95438 5.81506 5.09244 5.7617 5.22125C5.70835 5.35005 5.63015 5.46709 5.53156 5.56568C5.43297 5.66427 5.31594 5.74247 5.18713 5.79582C5.05832 5.84918 4.92026 5.87664 4.78084 5.87664C4.64142 5.87664 4.50336 5.84918 4.37455 5.79582C4.24574 5.74247 4.12871 5.66427 4.03012 5.56568C3.93153 5.46709 3.85333 5.35005 3.79998 5.22125C3.74662 5.09244 3.71916 4.95438 3.71916 4.81496ZM4.78084 10.1234C4.92026 10.1234 5.05832 10.1508 5.18713 10.2042C5.31594 10.2575 5.43297 10.3357 5.53156 10.4343C5.63015 10.5329 5.70835 10.6499 5.7617 10.7787C5.81506 10.9076 5.84252 11.0456 5.84252 11.185C5.84252 11.3245 5.81506 11.4625 5.7617 11.5913C5.70835 11.7201 5.63015 11.8372 5.53156 11.9358C5.43297 12.0343 5.31594 12.1125 5.18713 12.1659C5.05832 12.2193 4.92026 12.2467 4.78084 12.2467C4.64142 12.2467 4.50336 12.2193 4.37455 12.1659C4.24574 12.1125 4.12871 12.0343 4.03012 11.9358C3.93153 11.8372 3.85333 11.7201 3.79998 11.5913C3.74662 11.4625 3.71916 11.3245 3.71916 11.185C3.71916 11.0456 3.74662 10.9076 3.79998 10.7787C3.85333 10.6499 3.93153 10.5329 4.03012 10.4343C4.12871 10.3357 4.24574 10.2575 4.37455 10.2042C4.50336 10.1508 4.64142 10.1234 4.78084 10.1234Z" fill="black"/>
</svg>
